<svg width="108" height="12" viewBox="0 0 108 12" fill="none" xmlns="http://www.w3.org/2000/svg">
<path d="M5.11128 11.738C4.08033 11.738 3.20038 11.5141 2.47143 11.0663C1.74247 10.6081 1.18014 9.95727 0.784419 9.11377C0.399114 8.27026 0.206462 7.26535 0.206462 6.09902C0.206462 5.22428 0.315805 4.44326 0.534492 3.75596C0.753178 3.05824 1.07079 2.46987 1.48734 1.99085C1.9143 1.50141 2.42977 1.12652 3.03376 0.866176C3.64817 0.605835 4.34067 0.475664 5.11128 0.475664C5.81941 0.475664 6.47547 0.585007 7.07946 0.803694C7.69386 1.02238 8.21454 1.34 8.6415 1.75654C8.71439 1.82944 8.76126 1.90754 8.78208 1.99085C8.80291 2.06374 8.7977 2.13143 8.76646 2.19391C8.74564 2.25639 8.70919 2.30846 8.65712 2.35012C8.60505 2.38136 8.54257 2.39177 8.46967 2.38136C8.39678 2.37094 8.31868 2.32929 8.23537 2.25639C7.81882 1.87109 7.35021 1.58472 6.82953 1.39727C6.31926 1.20982 5.7413 1.1161 5.09566 1.1161C4.20009 1.1161 3.43989 1.31396 2.81508 1.70968C2.19026 2.09498 1.71644 2.66253 1.39362 3.41231C1.07079 4.15167 0.909382 5.04725 0.909382 6.09902C0.909382 7.16121 1.07079 8.0672 1.39362 8.81698C1.71644 9.55635 2.19026 10.1239 2.81508 10.5196C3.43989 10.9049 4.20009 11.0976 5.09566 11.0976C5.72048 11.0976 6.29323 11.0038 6.81391 10.8164C7.33459 10.6185 7.80841 10.327 8.23537 9.94165C8.31868 9.86875 8.39678 9.83231 8.46967 9.83231C8.54257 9.82189 8.60505 9.83751 8.65712 9.87917C8.70919 9.91041 8.74564 9.95727 8.76646 10.0198C8.7977 10.0822 8.80812 10.1499 8.7977 10.2228C8.78729 10.2957 8.74564 10.3634 8.67274 10.4259C8.21454 10.8633 7.68865 11.1913 7.09508 11.41C6.5015 11.6287 5.84023 11.738 5.11128 11.738ZM15.1312 11.738C14.1419 11.738 13.288 11.5089 12.5694 11.0507C11.8509 10.5925 11.2938 9.94165 10.898 9.09815C10.5127 8.25464 10.3201 7.25493 10.3201 6.09902C10.3201 5.22428 10.4294 4.44326 10.6481 3.75596C10.8668 3.05824 11.1844 2.46987 11.601 1.99085C12.0175 1.50141 12.5226 1.12652 13.1161 0.866176C13.7097 0.605835 14.3814 0.475664 15.1312 0.475664C16.1309 0.475664 16.99 0.704764 17.7086 1.16296C18.4375 1.61075 18.9946 2.25639 19.3799 3.0999C19.7652 3.93299 19.9579 4.92749 19.9579 6.0834C19.9579 6.95815 19.8433 7.74438 19.6142 8.44209C19.3956 9.1398 19.0779 9.73338 18.6614 10.2228C18.2449 10.7123 17.7398 11.0871 17.1462 11.3475C16.5526 11.6078 15.881 11.738 15.1312 11.738ZM15.1312 11.0976C16.0059 11.0976 16.7505 10.9049 17.3649 10.5196C17.9793 10.1239 18.4479 9.55635 18.7707 8.81698C19.0936 8.0672 19.255 7.16121 19.255 6.09902C19.255 4.51615 18.8957 3.29255 18.1772 2.42822C17.469 1.55347 16.4537 1.1161 15.1312 1.1161C14.2669 1.1161 13.5275 1.31396 12.9131 1.70968C12.2987 2.09498 11.8301 2.66253 11.5072 3.41231C11.1844 4.15167 11.023 5.04725 11.023 6.09902C11.023 7.67148 11.3823 8.90029 12.1008 9.78545C12.8194 10.6602 13.8295 11.0976 15.1312 11.0976ZM22.8473 11.613C22.7432 11.613 22.6599 11.5818 22.5974 11.5193C22.5349 11.4568 22.5037 11.3735 22.5037 11.2694V0.850555C22.5037 0.736005 22.5297 0.652696 22.5818 0.600628C22.6442 0.538146 22.7276 0.506906 22.8317 0.506906C22.9358 0.506906 23.0139 0.538146 23.066 0.600628C23.1285 0.652696 23.1597 0.736005 23.1597 0.850555V11.0038H28.7831C28.8976 11.0038 28.9809 11.0299 29.033 11.0819C29.0955 11.134 29.1267 11.2069 29.1267 11.3006C29.1267 11.4048 29.0955 11.4829 29.033 11.5349C28.9809 11.587 28.8976 11.613 28.7831 11.613H22.8473ZM31.0847 11.613C30.9805 11.613 30.8972 11.5818 30.8347 11.5193C30.7722 11.4568 30.741 11.3735 30.741 11.2694V0.850555C30.741 0.736005 30.767 0.652696 30.8191 0.600628C30.8816 0.538146 30.9649 0.506906 31.069 0.506906C31.1732 0.506906 31.2513 0.538146 31.3033 0.600628C31.3658 0.652696 31.3971 0.736005 31.3971 0.850555V11.0038H37.0204C37.135 11.0038 37.2183 11.0299 37.2703 11.0819C37.3328 11.134 37.3641 11.2069 37.3641 11.3006C37.3641 11.4048 37.3328 11.4829 37.2703 11.5349C37.2183 11.587 37.135 11.613 37.0204 11.613H31.0847ZM38.0506 11.7068C37.9465 11.7068 37.8684 11.6859 37.8163 11.6443C37.7643 11.6026 37.7382 11.5453 37.7382 11.4725C37.7382 11.3891 37.7591 11.3006 37.8007 11.2069L42.2682 0.834934C42.3202 0.720385 42.3827 0.637076 42.4556 0.585008C42.5285 0.53294 42.6014 0.506906 42.6743 0.506906C42.7576 0.506906 42.8357 0.53294 42.9086 0.585008C42.9815 0.637076 43.0388 0.720385 43.0804 0.834934L47.5479 11.2069C47.5895 11.3006 47.6103 11.3891 47.6103 11.4725C47.6103 11.5453 47.5895 11.6026 47.5479 11.6443C47.5062 11.6859 47.4333 11.7068 47.3292 11.7068C47.225 11.7068 47.1365 11.6755 47.0636 11.613C47.0011 11.5506 46.9491 11.4725 46.9074 11.3787L45.6422 8.42647L46.0639 8.56705H39.2534L39.6908 8.42647L38.4255 11.3787C38.3839 11.4933 38.3266 11.5766 38.2537 11.6287C38.1808 11.6807 38.1131 11.7068 38.0506 11.7068ZM42.6587 1.49099L39.8626 8.05158L39.519 7.95785H45.7984L45.486 8.05158L42.6899 1.49099H42.6587ZM50.1537 11.613C50.0287 11.613 49.9298 11.5818 49.8569 11.5193C49.7944 11.4464 49.7632 11.3475 49.7632 11.2225V0.991139C49.7632 0.866176 49.7944 0.772453 49.8569 0.709971C49.9298 0.637076 50.0287 0.600628 50.1537 0.600628H53.7932C54.543 0.600628 55.1782 0.715178 55.6989 0.944278C56.2196 1.16296 56.6153 1.48579 56.8861 1.91274C57.1672 2.3397 57.3078 2.86559 57.3078 3.49041C57.3078 4.18812 57.0996 4.76608 56.683 5.22428C56.2665 5.68248 55.7041 5.98447 54.996 6.13026V5.91158C55.777 5.98447 56.3966 6.26043 56.8548 6.73946C57.3234 7.20807 57.5578 7.8381 57.5578 8.62953C57.5578 9.60841 57.2506 10.353 56.6361 10.8633C56.0217 11.3631 55.1418 11.613 53.9963 11.613H50.1537ZM50.4192 11.0038H53.9807C54.9387 11.0038 55.6573 10.8164 56.1363 10.4415C56.6257 10.0562 56.8705 9.46783 56.8705 8.67639C56.8705 7.87455 56.6257 7.28618 56.1363 6.91128C55.6573 6.53639 54.9387 6.34895 53.9807 6.34895H50.4192V11.0038ZM50.4192 5.73975H53.7464C54.6836 5.73975 55.3969 5.5471 55.8864 5.1618C56.3758 4.76608 56.6205 4.20374 56.6205 3.47479C56.6205 2.73542 56.3758 2.17309 55.8864 1.78778C55.3969 1.40248 54.6836 1.20983 53.7464 1.20983H50.4192V5.73975ZM64.5247 11.738C63.5354 11.738 62.6815 11.5089 61.963 11.0507C61.2444 10.5925 60.6873 9.94165 60.2916 9.09815C59.9063 8.25464 59.7136 7.25493 59.7136 6.09902C59.7136 5.22428 59.823 4.44326 60.0416 3.75596C60.2603 3.05824 60.5779 2.46987 60.9945 1.99085C61.411 1.50141 61.9161 1.12652 62.5097 0.866176C63.1033 0.605835 63.7749 0.475664 64.5247 0.475664C65.5244 0.475664 66.3835 0.704764 67.1021 1.16296C67.831 1.61075 68.3882 2.25639 68.7735 3.0999C69.1588 3.93299 69.3514 4.92749 69.3514 6.0834C69.3514 6.95815 69.2369 7.74438 69.0078 8.44209C68.7891 9.1398 68.4715 9.73338 68.0549 10.2228C67.6384 10.7123 67.1333 11.0871 66.5398 11.3475C65.9462 11.6078 65.2745 11.738 64.5247 11.738ZM64.5247 11.0976C65.3995 11.0976 66.144 10.9049 66.7584 10.5196C67.3728 10.1239 67.8415 9.55635 68.1643 8.81698C68.4871 8.0672 68.6485 7.16121 68.6485 6.09902C68.6485 4.51615 68.2892 3.29255 67.5707 2.42822C66.8626 1.55347 65.8472 1.1161 64.5247 1.1161C63.6604 1.1161 62.921 1.31396 62.3066 1.70968C61.6922 2.09498 61.2236 2.66253 60.9008 3.41231C60.5779 4.15167 60.4165 5.04725 60.4165 6.09902C60.4165 7.67148 60.7758 8.90029 61.4943 9.78545C62.2129 10.6602 63.223 11.0976 64.5247 11.0976ZM72.2252 11.7068C72.1211 11.7068 72.0378 11.6755 71.9753 11.613C71.9232 11.5506 71.8972 11.4672 71.8972 11.3631V0.944278C71.8972 0.829728 71.9284 0.746419 71.9909 0.69435C72.0534 0.631869 72.1367 0.600628 72.2408 0.600628H75.8804C77.0363 0.600628 77.9215 0.866175 78.5359 1.39727C79.1503 1.92837 79.4575 2.68856 79.4575 3.67785C79.4575 4.31309 79.3169 4.8598 79.0357 5.318C78.7546 5.76579 78.3432 6.10944 77.8017 6.34895C77.2706 6.57805 76.6302 6.6926 75.8804 6.6926L76.0522 6.50515H76.1772C76.5729 6.50515 76.9114 6.60929 77.1925 6.81756C77.4841 7.02584 77.7549 7.36428 78.0048 7.83289L79.8011 11.1757C79.8532 11.259 79.874 11.3423 79.8636 11.4256C79.8636 11.5089 79.8376 11.5766 79.7855 11.6287C79.7439 11.6807 79.6866 11.7068 79.6137 11.7068C79.52 11.7068 79.4419 11.6807 79.3794 11.6287C79.3273 11.587 79.2805 11.5297 79.2388 11.4568L77.4268 8.08282C77.1352 7.54131 76.8124 7.18204 76.4584 7.00501C76.1043 6.82798 75.6201 6.73946 75.0057 6.73946H72.5532V11.3631C72.5532 11.4672 72.5272 11.5506 72.4751 11.613C72.4231 11.6755 72.3398 11.7068 72.2252 11.7068ZM72.5532 6.13026H75.8179C76.8072 6.13026 77.5466 5.92199 78.036 5.50545C78.5255 5.0889 78.7702 4.4745 78.7702 3.66223C78.7702 2.86038 78.5255 2.25119 78.036 1.83464C77.5466 1.4181 76.8072 1.20983 75.8179 1.20983H72.5532V6.13026ZM81.434 11.7068C81.3298 11.7068 81.2517 11.6859 81.1996 11.6443C81.1476 11.6026 81.1215 11.5453 81.1215 11.4725C81.1215 11.3891 81.1424 11.3006 81.184 11.2069L85.6515 0.834934C85.7035 0.720385 85.766 0.637076 85.8389 0.585008C85.9118 0.53294 85.9847 0.506906 86.0576 0.506906C86.1409 0.506906 86.219 0.53294 86.2919 0.585008C86.3648 0.637076 86.4221 0.720385 86.4637 0.834934L90.9312 11.2069C90.9728 11.3006 90.9937 11.3891 90.9937 11.4725C90.9937 11.5453 90.9728 11.6026 90.9312 11.6443C90.8895 11.6859 90.8166 11.7068 90.7125 11.7068C90.6084 11.7068 90.5198 11.6755 90.4469 11.613C90.3845 11.5506 90.3324 11.4725 90.2907 11.3787L89.0255 8.42647L89.4472 8.56705H82.6367L83.0741 8.42647L81.8088 11.3787C81.7672 11.4933 81.7099 11.5766 81.637 11.6287C81.5641 11.6807 81.4964 11.7068 81.434 11.7068ZM86.042 1.49099L83.2459 8.05158L82.9023 7.95785H89.1817L88.8693 8.05158L86.0732 1.49099H86.042ZM95.0491 11.7068C94.945 11.7068 94.8617 11.6755 94.7992 11.613C94.7471 11.5506 94.7211 11.4672 94.7211 11.3631V1.20983H90.7691C90.665 1.20983 90.5817 1.18379 90.5192 1.13172C90.4567 1.06924 90.4255 0.991139 90.4255 0.897416C90.4255 0.803693 90.4567 0.730798 90.5192 0.67873C90.5817 0.626662 90.665 0.600628 90.7691 0.600628H99.3291C99.4437 0.600628 99.527 0.626662 99.5791 0.67873C99.6415 0.730798 99.6728 0.803693 99.6728 0.897416C99.6728 1.00155 99.6415 1.07965 99.5791 1.13172C99.527 1.18379 99.4437 1.20983 99.3291 1.20983H95.3772V11.3631C95.3772 11.4672 95.3511 11.5506 95.2991 11.613C95.247 11.6755 95.1637 11.7068 95.0491 11.7068ZM101.515 11.613C101.39 11.613 101.291 11.5818 101.218 11.5193C101.156 11.4464 101.125 11.3475 101.125 11.2225V0.991139C101.125 0.866176 101.156 0.772453 101.218 0.709971C101.291 0.637076 101.39 0.600628 101.515 0.600628H107.513C107.617 0.600628 107.695 0.626662 107.748 0.67873C107.81 0.730798 107.841 0.803693 107.841 0.897416C107.841 1.00155 107.81 1.07965 107.748 1.13172C107.695 1.18379 107.617 1.20983 107.513 1.20983H101.781V5.72413H107.201C107.305 5.72413 107.383 5.75017 107.435 5.80223C107.498 5.8543 107.529 5.9272 107.529 6.02092C107.529 6.12506 107.498 6.20316 107.435 6.25523C107.383 6.30729 107.305 6.33333 107.201 6.33333H101.781V11.0038H107.513C107.617 11.0038 107.695 11.0299 107.748 11.0819C107.81 11.134 107.841 11.2069 107.841 11.3006C107.841 11.4048 107.81 11.4829 107.748 11.5349C107.695 11.587 107.617 11.613 107.513 11.613H101.515Z" fill="black"/>
</svg>
