<svg width="56" height="12" viewBox="0 0 56 12" fill="none" xmlns="http://www.w3.org/2000/svg">
<path d="M5.25799 11.738C4.22704 11.738 3.34709 11.5141 2.61813 11.0663C1.88918 10.6081 1.32684 9.95727 0.931124 9.11377C0.54582 8.27026 0.353168 7.26535 0.353168 6.09902C0.353168 5.22428 0.462511 4.44326 0.681197 3.75596C0.899883 3.05824 1.2175 2.46987 1.63404 1.99085C2.061 1.50141 2.57648 1.12652 3.18047 0.866176C3.79487 0.605835 4.48738 0.475664 5.25799 0.475664C5.96611 0.475664 6.62217 0.585007 7.22616 0.803694C7.84057 1.02238 8.36125 1.34 8.78821 1.75654C8.8611 1.82944 8.90796 1.90754 8.92879 1.99085C8.94962 2.06374 8.94441 2.13143 8.91317 2.19391C8.89234 2.25639 8.85589 2.30846 8.80383 2.35012C8.75176 2.38136 8.68928 2.39177 8.61638 2.38136C8.54348 2.37094 8.46538 2.32929 8.38207 2.25639C7.96553 1.87109 7.49692 1.58472 6.97623 1.39727C6.46597 1.20982 5.88801 1.1161 5.24237 1.1161C4.34679 1.1161 3.5866 1.31396 2.96178 1.70968C2.33696 2.09498 1.86314 2.66253 1.54032 3.41231C1.2175 4.15167 1.05609 5.04725 1.05609 6.09902C1.05609 7.16121 1.2175 8.0672 1.54032 8.81698C1.86314 9.55635 2.33696 10.1239 2.96178 10.5196C3.5866 10.9049 4.34679 11.0976 5.24237 11.0976C5.86718 11.0976 6.43993 11.0038 6.96061 10.8164C7.48129 10.6185 7.95511 10.327 8.38207 9.94165C8.46538 9.86875 8.54348 9.83231 8.61638 9.83231C8.68928 9.82189 8.75176 9.83751 8.80383 9.87917C8.85589 9.91041 8.89234 9.95727 8.91317 10.0198C8.94441 10.0822 8.95482 10.1499 8.94441 10.2228C8.934 10.2957 8.89234 10.3634 8.81945 10.4259C8.36125 10.8633 7.83536 11.1913 7.24178 11.41C6.6482 11.6287 5.98694 11.738 5.25799 11.738ZM11.5529 11.7068C11.4488 11.7068 11.3655 11.6755 11.303 11.613C11.2509 11.5506 11.2249 11.4672 11.2249 11.3631V0.944278C11.2249 0.829728 11.2561 0.746419 11.3186 0.69435C11.3811 0.631869 11.4644 0.600628 11.5685 0.600628H15.2081C16.364 0.600628 17.2492 0.866175 17.8636 1.39727C18.478 1.92837 18.7852 2.68856 18.7852 3.67785C18.7852 4.31309 18.6446 4.8598 18.3634 5.318C18.0822 5.76579 17.6709 6.10944 17.1294 6.34895C16.5983 6.57805 15.9579 6.6926 15.2081 6.6926L15.3799 6.50515H15.5049C15.9006 6.50515 16.239 6.60929 16.5202 6.81756C16.8118 7.02584 17.0825 7.36428 17.3325 7.83289L19.1288 11.1757C19.1809 11.259 19.2017 11.3423 19.1913 11.4256C19.1913 11.5089 19.1653 11.5766 19.1132 11.6287C19.0715 11.6807 19.0143 11.7068 18.9414 11.7068C18.8476 11.7068 18.7695 11.6807 18.7071 11.6287C18.655 11.587 18.6081 11.5297 18.5665 11.4568L16.7545 8.08282C16.4629 7.54131 16.1401 7.18204 15.786 7.00501C15.432 6.82798 14.9477 6.73946 14.3333 6.73946H11.8809V11.3631C11.8809 11.4672 11.8549 11.5506 11.8028 11.613C11.7508 11.6755 11.6674 11.7068 11.5529 11.7068ZM11.8809 6.13026H15.1456C16.1349 6.13026 16.8743 5.92199 17.3637 5.50545C17.8531 5.0889 18.0979 4.4745 18.0979 3.66223C18.0979 2.86038 17.8531 2.25119 17.3637 1.83464C16.8743 1.4181 16.1349 1.20983 15.1456 1.20983H11.8809V6.13026ZM21.8358 11.613C21.7108 11.613 21.6119 11.5818 21.539 11.5193C21.4765 11.4464 21.4453 11.3475 21.4453 11.2225V0.991139C21.4453 0.866176 21.4765 0.772453 21.539 0.709971C21.6119 0.637076 21.7108 0.600628 21.8358 0.600628H27.834C27.9382 0.600628 28.0163 0.626662 28.0683 0.67873C28.1308 0.730798 28.1621 0.803693 28.1621 0.897416C28.1621 1.00155 28.1308 1.07965 28.0683 1.13172C28.0163 1.18379 27.9382 1.20983 27.834 1.20983H22.1013V5.72413H27.5216C27.6258 5.72413 27.7039 5.75017 27.7559 5.80223C27.8184 5.8543 27.8497 5.9272 27.8497 6.02092C27.8497 6.12506 27.8184 6.20316 27.7559 6.25523C27.7039 6.30729 27.6258 6.33333 27.5216 6.33333H22.1013V11.0038H27.834C27.9382 11.0038 28.0163 11.0299 28.0683 11.0819C28.1308 11.134 28.1621 11.2069 28.1621 11.3006C28.1621 11.4048 28.1308 11.4829 28.0683 11.5349C28.0163 11.587 27.9382 11.613 27.834 11.613H21.8358ZM29.5939 11.7068C29.4898 11.7068 29.4117 11.6859 29.3596 11.6443C29.3075 11.6026 29.2815 11.5453 29.2815 11.4725C29.2815 11.3891 29.3023 11.3006 29.344 11.2069L33.8114 0.834934C33.8635 0.720385 33.926 0.637076 33.9989 0.585008C34.0718 0.53294 34.1446 0.506906 34.2175 0.506906C34.3009 0.506906 34.379 0.53294 34.4519 0.585008C34.5247 0.637076 34.582 0.720385 34.6237 0.834934L39.0911 11.2069C39.1328 11.3006 39.1536 11.3891 39.1536 11.4725C39.1536 11.5453 39.1328 11.6026 39.0911 11.6443C39.0495 11.6859 38.9766 11.7068 38.8724 11.7068C38.7683 11.7068 38.6798 11.6755 38.6069 11.613C38.5444 11.5506 38.4923 11.4725 38.4507 11.3787L37.1854 8.42647L37.6072 8.56705H30.7967L31.234 8.42647L29.9688 11.3787C29.9271 11.4933 29.8699 11.5766 29.797 11.6287C29.7241 11.6807 29.6564 11.7068 29.5939 11.7068ZM34.2019 1.49099L31.4059 8.05158L31.0622 7.95785H37.3416L37.0292 8.05158L34.2332 1.49099H34.2019ZM43.2091 11.7068C43.1049 11.7068 43.0216 11.6755 42.9591 11.613C42.9071 11.5506 42.881 11.4672 42.881 11.3631V1.20983H38.9291C38.8249 1.20983 38.7416 1.18379 38.6791 1.13172C38.6167 1.06924 38.5854 0.991139 38.5854 0.897416C38.5854 0.803693 38.6167 0.730798 38.6791 0.67873C38.7416 0.626662 38.8249 0.600628 38.9291 0.600628H47.4891C47.6036 0.600628 47.6869 0.626662 47.739 0.67873C47.8015 0.730798 47.8327 0.803693 47.8327 0.897416C47.8327 1.00155 47.8015 1.07965 47.739 1.13172C47.6869 1.18379 47.6036 1.20983 47.4891 1.20983H43.5371V11.3631C43.5371 11.4672 43.5111 11.5506 43.459 11.613C43.4069 11.6755 43.3236 11.7068 43.2091 11.7068ZM49.6749 11.613C49.55 11.613 49.4511 11.5818 49.3782 11.5193C49.3157 11.4464 49.2844 11.3475 49.2844 11.2225V0.991139C49.2844 0.866176 49.3157 0.772453 49.3782 0.709971C49.4511 0.637076 49.55 0.600628 49.6749 0.600628H55.6732C55.7773 0.600628 55.8554 0.626662 55.9075 0.67873C55.97 0.730798 56.0012 0.803693 56.0012 0.897416C56.0012 1.00155 55.97 1.07965 55.9075 1.13172C55.8554 1.18379 55.7773 1.20983 55.6732 1.20983H49.9405V5.72413H55.3608C55.4649 5.72413 55.543 5.75017 55.5951 5.80223C55.6576 5.8543 55.6888 5.9272 55.6888 6.02092C55.6888 6.12506 55.6576 6.20316 55.5951 6.25523C55.543 6.30729 55.4649 6.33333 55.3608 6.33333H49.9405V11.0038H55.6732C55.7773 11.0038 55.8554 11.0299 55.9075 11.0819C55.97 11.134 56.0012 11.2069 56.0012 11.3006C56.0012 11.4048 55.97 11.4829 55.9075 11.5349C55.8554 11.587 55.7773 11.613 55.6732 11.613H49.6749Z" fill="black"/>
</svg>
