<svg width="75" height="13" viewBox="0 0 75 13" fill="none" xmlns="http://www.w3.org/2000/svg">
<path d="M0.951081 12.0937C0.846944 12.0937 0.763635 12.0625 0.701154 12C0.649085 11.9375 0.623051 11.8542 0.623051 11.7501V1.23752C0.623051 1.12297 0.649085 1.03966 0.701154 0.987591C0.763635 0.925109 0.846944 0.893868 0.951081 0.893868C1.05522 0.893868 1.13332 0.925109 1.18539 0.987591C1.24787 1.03966 1.27911 1.12297 1.27911 1.23752V11.7501C1.27911 11.8542 1.25308 11.9375 1.20101 12C1.14894 12.0625 1.06563 12.0937 0.951081 12.0937ZM4.5965 12.0937C4.50278 12.0937 4.42468 12.0625 4.36219 12C4.31013 11.9375 4.28409 11.8542 4.28409 11.7501V1.25314C4.28409 1.13859 4.31013 1.05007 4.36219 0.987591C4.41426 0.925109 4.48195 0.893868 4.56526 0.893868C4.65898 0.893868 4.72667 0.909489 4.76833 0.94073C4.82039 0.971971 4.87246 1.02925 4.92453 1.11255L12.4536 11.3439H12.1099V1.23752C12.1099 1.12297 12.136 1.03966 12.188 0.987591C12.2505 0.925109 12.3286 0.893868 12.4223 0.893868C12.5161 0.893868 12.589 0.925109 12.641 0.987591C12.6931 1.03966 12.7191 1.12297 12.7191 1.23752V11.7345C12.7191 11.849 12.6931 11.9375 12.641 12C12.5994 12.0625 12.5369 12.0937 12.4536 12.0937C12.3807 12.0937 12.313 12.0729 12.2505 12.0312C12.1984 12 12.1464 11.9479 12.0943 11.875L4.56526 1.64365H4.89329V11.7501C4.89329 11.8542 4.86725 11.9375 4.81519 12C4.76312 12.0625 4.69022 12.0937 4.5965 12.0937ZM16.0373 12.0937C15.9435 12.0937 15.8654 12.0625 15.8029 12C15.7509 11.9375 15.7248 11.8542 15.7248 11.7501V1.25314C15.7248 1.13859 15.7509 1.05007 15.8029 0.987591C15.855 0.925109 15.9227 0.893868 16.006 0.893868C16.0997 0.893868 16.1674 0.909489 16.2091 0.94073C16.2611 0.971971 16.3132 1.02925 16.3653 1.11255L23.8943 11.3439H23.5507V1.23752C23.5507 1.12297 23.5767 1.03966 23.6288 0.987591C23.6913 0.925109 23.7694 0.893868 23.8631 0.893868C23.9568 0.893868 24.0297 0.925109 24.0818 0.987591C24.1338 1.03966 24.1599 1.12297 24.1599 1.23752V11.7345C24.1599 11.849 24.1338 11.9375 24.0818 12C24.0401 12.0625 23.9776 12.0937 23.8943 12.0937C23.8214 12.0937 23.7537 12.0729 23.6913 12.0312C23.6392 12 23.5871 11.9479 23.5351 11.875L16.006 1.64365H16.334V11.7501C16.334 11.8542 16.308 11.9375 16.2559 12C16.2039 12.0625 16.131 12.0937 16.0373 12.0937ZM31.5237 12.125C30.5344 12.125 29.6805 11.8959 28.9619 11.4377C28.2434 10.9795 27.6863 10.3286 27.2906 9.48511C26.9053 8.64161 26.7126 7.6419 26.7126 6.48599C26.7126 5.61124 26.8219 4.83022 27.0406 4.14292C27.2593 3.44521 27.5769 2.85684 27.9935 2.37781C28.41 1.88837 28.9151 1.51348 29.5087 1.25314C30.1022 0.992798 30.7739 0.862627 31.5237 0.862627C32.5234 0.862627 33.3825 1.09173 34.1011 1.54993C34.83 1.99771 35.3871 2.64336 35.7725 3.48686C36.1578 4.31995 36.3504 5.31445 36.3504 6.47037C36.3504 7.34511 36.2359 8.13134 36.0068 8.82905C35.7881 9.52676 35.4705 10.1203 35.0539 10.6098C34.6374 11.0992 34.1323 11.4741 33.5387 11.7345C32.9452 11.9948 32.2735 12.125 31.5237 12.125ZM31.5237 11.4845C32.3984 11.4845 33.143 11.2919 33.7574 10.9066C34.3718 10.5109 34.8404 9.94331 35.1633 9.20394C35.4861 8.45416 35.6475 7.54818 35.6475 6.48599C35.6475 4.90311 35.2882 3.67951 34.5697 2.81518C33.8616 1.94044 32.8462 1.50307 31.5237 1.50307C30.6594 1.50307 29.92 1.70092 29.3056 2.09664C28.6912 2.48195 28.2226 3.04949 27.8998 3.79927C27.5769 4.53864 27.4155 5.43421 27.4155 6.48599C27.4155 8.05844 27.7748 9.28725 28.4933 10.1724C29.2119 11.0472 30.222 11.4845 31.5237 11.4845ZM42.385 12.0937C42.2705 12.0937 42.1768 12.0625 42.1039 12C42.031 11.9375 41.9685 11.849 41.9164 11.7345L37.4333 1.3C37.4021 1.20628 37.3917 1.13338 37.4021 1.08131C37.4229 1.01883 37.4594 0.971971 37.5114 0.94073C37.5739 0.909489 37.6416 0.893868 37.7145 0.893868C37.8082 0.893868 37.8811 0.919902 37.9332 0.971971C37.9853 1.01363 38.0321 1.07611 38.0738 1.15942L42.5725 11.6251H42.2132L46.6963 1.15942C46.7379 1.07611 46.7848 1.01363 46.8368 0.971971C46.8993 0.919902 46.9774 0.893868 47.0712 0.893868C47.1545 0.893868 47.2169 0.914696 47.2586 0.95635C47.3107 0.987591 47.3419 1.03445 47.3523 1.09693C47.3627 1.149 47.3523 1.21669 47.3211 1.3L42.838 11.7345C42.7964 11.849 42.7391 11.9375 42.6662 12C42.5933 12.0625 42.4996 12.0937 42.385 12.0937ZM47.777 12.0937C47.6729 12.0937 47.5948 12.0729 47.5427 12.0312C47.4906 11.9896 47.4646 11.9323 47.4646 11.8594C47.4646 11.7761 47.4854 11.6876 47.5271 11.5939L51.9945 1.2219C52.0466 1.10735 52.1091 1.02404 52.182 0.971971C52.2549 0.919902 52.3278 0.893868 52.4007 0.893868C52.484 0.893868 52.5621 0.919902 52.635 0.971971C52.7079 1.02404 52.7651 1.10735 52.8068 1.2219L57.2742 11.5939C57.3159 11.6876 57.3367 11.7761 57.3367 11.8594C57.3367 11.9323 57.3159 11.9896 57.2742 12.0312C57.2326 12.0729 57.1597 12.0937 57.0555 12.0937C56.9514 12.0937 56.8629 12.0625 56.79 12C56.7275 11.9375 56.6754 11.8594 56.6338 11.7657L55.3685 8.81343L55.7903 8.95401H48.9798L49.4171 8.81343L48.1519 11.7657C48.1102 11.8802 48.053 11.9636 47.9801 12.0156C47.9072 12.0677 47.8395 12.0937 47.777 12.0937ZM52.385 1.87796L49.589 8.43854L49.2453 8.34482H55.5247L55.2123 8.43854L52.4163 1.87796H52.385ZM61.3922 12.0937C61.288 12.0937 61.2047 12.0625 61.1422 12C61.0902 11.9375 61.0641 11.8542 61.0641 11.7501V1.59679H57.1122C57.008 1.59679 56.9247 1.57075 56.8622 1.51869C56.7998 1.4562 56.7685 1.3781 56.7685 1.28438C56.7685 1.19066 56.7998 1.11776 56.8622 1.06569C56.9247 1.01362 57.008 0.987591 57.1122 0.987591H65.6722C65.7867 0.987591 65.87 1.01362 65.9221 1.06569C65.9846 1.11776 66.0158 1.19066 66.0158 1.28438C66.0158 1.38852 65.9846 1.46662 65.9221 1.51869C65.87 1.57075 65.7867 1.59679 65.6722 1.59679H61.7202V11.7501C61.7202 11.8542 61.6942 11.9375 61.6421 12C61.59 12.0625 61.5067 12.0937 61.3922 12.0937ZM67.8581 12C67.7331 12 67.6342 11.9688 67.5613 11.9063C67.4988 11.8334 67.4675 11.7345 67.4675 11.6095V1.3781C67.4675 1.25314 67.4988 1.15942 67.5613 1.09693C67.6342 1.02404 67.7331 0.987591 67.8581 0.987591H73.8563C73.9604 0.987591 74.0385 1.01362 74.0906 1.06569C74.1531 1.11776 74.1843 1.19066 74.1843 1.28438C74.1843 1.38852 74.1531 1.46662 74.0906 1.51869C74.0385 1.57075 73.9604 1.59679 73.8563 1.59679H68.1236V6.11109H73.5439C73.648 6.11109 73.7261 6.13713 73.7782 6.1892C73.8407 6.24127 73.8719 6.31416 73.8719 6.40788C73.8719 6.51202 73.8407 6.59012 73.7782 6.64219C73.7261 6.69426 73.648 6.72029 73.5439 6.72029H68.1236V11.3908H73.8563C73.9604 11.3908 74.0385 11.4168 74.0906 11.4689C74.1531 11.521 74.1843 11.5939 74.1843 11.6876C74.1843 11.7917 74.1531 11.8698 74.0906 11.9219C74.0385 11.974 73.9604 12 73.8563 12H67.8581Z" fill="black"/>
</svg>
