<svg width="24" height="16" viewBox="0 0 24 16" fill="none" xmlns="http://www.w3.org/2000/svg">
<path d="M20.0196 5.512C18.7929 2.29067 15.667 0 12.0054 0C8.34375 0 5.21786 2.288 3.99107 5.50933C1.69554 6.10933 0 8.192 0 10.6667C0 13.6133 2.39732 16 5.35446 16H6.42857C6.54643 16 6.64286 15.904 6.64286 15.7867V14.1867C6.64286 14.0693 6.54643 13.9733 6.42857 13.9733H5.35446C4.45179 13.9733 3.60268 13.616 2.97054 12.968C2.34107 12.3227 2.00625 11.4533 2.03571 10.552C2.05982 9.848 2.30089 9.18667 2.7375 8.62933C3.18482 8.06133 3.81161 7.648 4.50804 7.464L5.52321 7.2L5.89554 6.224C6.12589 5.616 6.44732 5.048 6.85179 4.53333C7.25108 4.02322 7.72407 3.5748 8.25536 3.20267C9.35625 2.432 10.6527 2.024 12.0054 2.024C13.358 2.024 14.6545 2.432 15.7554 3.20267C16.2884 3.576 16.7598 4.024 17.1589 4.53333C17.5634 5.048 17.8848 5.61867 18.1152 6.224L18.4848 7.19733L19.4973 7.464C20.9491 7.85333 21.9643 9.168 21.9643 10.6667C21.9643 11.5493 21.6187 12.3813 20.992 13.0053C20.6846 13.3131 20.3189 13.5572 19.9162 13.7233C19.5134 13.8895 19.0815 13.9745 18.6455 13.9733H17.5714C17.4536 13.9733 17.3571 14.0693 17.3571 14.1867V15.7867C17.3571 15.904 17.4536 16 17.5714 16H18.6455C21.6027 16 24 13.6133 24 10.6667C24 8.19467 22.3098 6.11467 20.0196 5.512Z" fill="#E30016"/>
</svg>
